<svg width="301" height="123" viewBox="0 0 301 123" fill="none" xmlns="http://www.w3.org/2000/svg">
<path d="M0.996201 122.514C0.996201 118.026 0.982423 113.682 1.0272 109.335C1.0272 109.087 1.45431 108.722 1.75398 108.622C2.12598 108.498 2.57032 108.588 2.98365 108.588C101.671 108.588 200.354 108.588 299.041 108.588H300.994V122.51H0.996201V122.514ZM198.653 102.047C199.049 102.067 199.359 102.095 199.672 102.095C207.653 102.095 215.634 102.126 223.615 102.074C225.626 102.061 227.648 101.875 229.642 101.599C238.76 100.349 245.246 94.6756 246.958 85.9474C248.494 78.1181 248.377 70.1649 247.044 62.3115C245.969 55.9772 242.576 51.1653 236.493 48.5337C236.404 48.4958 236.359 48.3581 236.29 48.2651C242.091 44.4073 244.299 41.6345 245.487 35.5585C246.779 28.9417 246.799 22.2388 245.28 15.6461C243.658 8.60564 239.273 4.00385 232.16 2.34707C229.46 1.71673 226.646 1.32751 223.876 1.27584C215.806 1.13118 207.732 1.21729 199.658 1.21384C199.348 1.21384 199.035 1.24829 198.66 1.26896V102.047H198.653ZM214.566 56.704C218.393 56.8555 222.185 56.2872 225.919 57.2379C229.536 58.161 231.313 60.8614 231.489 64.2542C231.785 69.9479 231.836 75.6795 231.526 81.3697C231.313 85.3101 228.575 87.4733 224.603 87.5835C221.31 87.673 218.014 87.6007 214.566 87.6007V56.704ZM224.483 15.9285C228.072 16.3867 229.79 19.2283 230.014 22.5453C230.297 26.7717 230.355 31.06 229.939 35.2691C229.515 39.5334 226.938 41.7482 222.636 42.1305C220.008 42.3647 217.342 42.1718 214.6 42.1718V15.8424C217.935 15.8424 221.255 15.5187 224.483 15.9285ZM112.824 102.009H128.692V61.2369C131.493 61.2369 134.166 61.0199 136.787 61.2885C140.407 61.664 142.932 63.7272 143.755 67.3439C144.261 69.5552 144.527 71.8596 144.575 74.1294C144.692 79.7646 144.499 85.4066 144.671 91.0348C144.771 94.2692 145.35 97.4863 145.705 100.71C145.818 101.74 146.28 102.14 147.399 102.123C151.894 102.054 156.393 102.095 160.888 102.088C161.273 102.088 161.659 102.026 162.155 101.985C160.529 97.5035 160.567 92.974 160.54 88.4377C160.502 82.1619 160.657 75.8689 160.226 69.6172C159.741 62.5561 157.299 56.3699 150.368 52.9805C150.303 52.9495 150.272 52.8496 150.196 52.7394C155.476 50.1044 158.573 45.7196 159.544 40.0604C160.939 31.9315 161.056 23.7096 159.358 15.6151C157.987 9.08097 153.954 4.6273 147.444 2.60885C143.993 1.53762 140.452 1.18629 136.852 1.19318C129.326 1.20696 121.803 1.19662 114.277 1.19662C113.823 1.19662 113.371 1.19662 112.82 1.19662V101.999L112.824 102.009ZM137.145 15.6427C140.972 15.8493 143.683 17.978 143.972 21.9047C144.399 27.7223 144.489 33.6124 144.072 39.4266C143.741 44.0422 140.903 46.2604 136.28 46.5566C133.818 46.7151 131.338 46.5842 128.765 46.5842V15.6185C131.651 15.6185 134.403 15.498 137.145 15.6461V15.6427ZM58.2017 101.995H74.0496V64.2232C74.7557 64.2232 75.2999 64.2335 75.8407 64.2232C79.2748 64.1371 82.7262 64.2025 86.1431 63.9166C90.5106 63.5515 94.5682 62.1703 97.9782 59.2804C102.449 55.4915 104.519 50.4109 104.898 44.7965C105.329 38.3657 105.236 31.8936 105.246 25.4421C105.249 23.2101 105.043 20.9506 104.654 18.753C103.431 11.8296 100.169 6.31163 93.4487 3.3494C90.4348 2.01985 87.2453 1.32751 83.973 1.28962C75.6271 1.20007 67.2812 1.23107 58.9319 1.21729C58.7114 1.21729 58.491 1.25518 58.1982 1.27929V101.999L58.2017 101.995ZM74.1219 15.4325C77.5698 15.6082 81.0177 15.5152 84.3726 16.0284C87.3796 16.4865 89.1259 18.9597 89.2189 22.6831C89.3808 29.3206 89.4153 35.9649 89.2155 42.5989C89.0708 47.3075 86.5805 49.5671 81.8892 49.7599C79.3334 49.8633 76.7707 49.7772 74.1219 49.7772V15.436V15.4325ZM1.7712 82.806C2.64954 92.3058 8.52922 99.5116 17.3401 102.078C21.4011 103.259 25.5517 103.421 29.747 102.98C38.527 102.054 45.1369 96.7251 47.5893 88.293C48.3126 85.8096 48.7053 83.1884 48.8982 80.6016C49.5389 72.0077 47.3895 64.1888 42.0644 57.3033C38.2273 52.3398 33.5394 48.2237 28.9548 43.9974C25.8858 41.166 22.8719 38.2796 20.7364 34.6216C17.9567 29.8614 16.9199 24.8221 18.5147 19.4557C19.5136 16.0904 22.0797 14.4509 25.872 14.475C29.5714 14.4957 32.1582 16.1455 33.0503 19.4832C33.5738 21.4431 33.5979 23.5442 33.7771 25.5868C33.8632 26.565 33.7908 27.557 33.7908 28.5559H49.0842C48.7949 24.953 48.788 21.4121 48.1783 17.9745C46.7075 9.6872 42.34 3.62841 33.9458 1.12084C29.6127 -0.17427 25.1487 -0.270715 20.7226 0.476731C12.0908 1.93718 5.88388 6.60097 3.37976 15.1363C-0.347135 27.836 2.5462 39.1338 11.6258 48.7645C15.4595 52.8324 19.579 56.6351 23.3955 60.7168C25.8273 63.3173 28.135 66.0763 30.1466 69.0075C32.878 72.9824 33.5945 77.5222 32.816 82.2825C32.1444 86.402 29.7264 88.6444 25.872 88.7443C21.5389 88.8545 18.9384 86.9876 18.2391 82.6855C17.7638 79.7715 17.9016 76.7576 17.7776 73.7919C17.75 73.1237 17.7741 72.4554 17.7741 71.7356H1.31998C1.46465 75.5107 1.43709 79.179 1.7712 82.8129V82.806ZM273.452 43.6426V15.5634H300.798V1.28962H257.498V102.009H300.781V87.5973H273.425V58.1265H295.125V43.6426H273.452ZM171.118 102.005H186.897V1.28962H171.118V102.002V102.005Z" fill="white"/>
</svg>
